<svg _ngcontent-ng-c3107572908="" fill="none" xmlns="http://www.w3.org/2000/svg" viewBox="0 0 58 58"><rect _ngcontent-ng-c3107572908="" x="0" y="0" width="58" height="58" rx="29" fill="#F8F9FA"/><path _ngcontent-ng-c3107572908="" d="m29.53 33.6-5.6 8H12.09L29.5 16.75l.03 9.65v7.19Z" fill="#FEEFC3" stroke="#F9AB00" stroke-width="1.5" stroke-miterlimit="10" stroke-linejoin="round"/><path _ngcontent-ng-c3107572908="" d="M39.89 16.76H29.53v24.83H39.9V16.76Z" fill="#D2E3FC" stroke="#1A73E8" stroke-width="1.5" stroke-miterlimit="10" stroke-linejoin="round"/><path _ngcontent-ng-c3107572908="" d="M15.63 26.13a4.61 4.61 0 0 0 4.64-4.59 4.61 4.61 0 0 0-4.64-4.59A4.61 4.61 0 0 0 11 21.54a4.61 4.61 0 0 0 4.63 4.59Z" fill="#FCE8E6" stroke="#EA4335" stroke-width="1.5" stroke-miterlimit="10" stroke-linejoin="round"/><path _ngcontent-ng-c3107572908="" d="M39.7 27.55c-3.01 0-5.46-2.42-5.46-5.4 0-2.97 2.45-5.4 5.45-5.4" fill="#D2E3FC"/><path _ngcontent-ng-c3107572908="" d="M39.7 27.55c-3.01 0-5.46-2.42-5.46-5.4 0-2.97 2.45-5.4 5.45-5.4" stroke="#185ABC" stroke-width="1.5" stroke-miterlimit="10" stroke-linejoin="round"/><path _ngcontent-ng-c3107572908="" d="M39.9 16.76c3.01 0 5.45 2.42 5.45 5.4 0 2.97-2.44 5.4-5.45 5.4" fill="#D2E3FC"/><path _ngcontent-ng-c3107572908="" d="M39.9 16.76c3.01 0 5.45 2.42 5.45 5.4 0 2.97-2.44 5.4-5.45 5.4" stroke="#185ABC" stroke-width="1.5" stroke-miterlimit="10" stroke-linejoin="round"/><path _ngcontent-ng-c3107572908="" d="M39.91 41.6a7.05 7.05 0 0 1-7.08-7.03 7.05 7.05 0 0 1 7.08-7.02" fill="#CEEAD6"/><path _ngcontent-ng-c3107572908="" d="M39.91 41.6a7.05 7.05 0 0 1-7.08-7.03 7.05 7.05 0 0 1 7.08-7.02" stroke="#137333" stroke-width="1.5" stroke-miterlimit="10" stroke-linejoin="round"/><path _ngcontent-ng-c3107572908="" d="M39.92 27.55A7.05 7.05 0 0 1 47 34.57a7.05 7.05 0 0 1-7.08 7.02" fill="#CEEAD6"/><path _ngcontent-ng-c3107572908="" d="M39.92 27.55A7.05 7.05 0 0 1 47 34.57a7.05 7.05 0 0 1-7.08 7.02" stroke="#188038" stroke-width="1.5" stroke-miterlimit="10" stroke-linejoin="round"/><path _ngcontent-ng-c3107572908="" d="M39.89 16v11.88" stroke="#185ABC" stroke-width="1.5" stroke-miterlimit="10" stroke-linejoin="round"/><path _ngcontent-ng-c3107572908="" d="M39.89 26.9v15.45" stroke="#137333" stroke-width="1.5" stroke-miterlimit="10" stroke-linejoin="round"/></svg>