<svg _ngcontent-ng-c3107572908="" width="134" height="24" xmlns="http://www.w3.org/2000/svg"><path _ngcontent-ng-c3107572908="" d="M83.4 11.2v7h-2.1V1.9h9.6v2h-7.5v5.4h6.8v2h-6.8ZM91.6 12.6a6 6 0 0 1 1.6-4.3 5.6 5.6 0 0 1 4.2-1.7c1.7 0 3 .6 4.1 1.7a6 6 0 0 1 1.7 4.3c0 1.8-.6 3.2-1.7 4.3a5.5 5.5 0 0 1-4.1 1.7c-1.7 0-3-.5-4.2-1.7a6 6 0 0 1-1.6-4.3Zm2.1 0c0 1.3.4 2.2 1 3 .8.7 1.6 1.1 2.7 1.1 1 0 2-.4 2.6-1.1.7-.8 1-1.7 1-3a4 4 0 0 0-1-2.9 3.4 3.4 0 0 0-2.6-1.1c-1 0-2 .4-2.6 1.1a4 4 0 0 0-1 3ZM107 7v1.6c.3-.6.8-1 1.5-1.4.6-.4 1.3-.6 2-.6 1.4 0 2.5.4 3.2 1.2.8.8 1.2 2 1.2 3.4v7h-2.2v-6.9c0-1.8-1-2.8-2.7-2.8-.9 0-1.6.4-2.2 1-.5.7-.8 1.6-.8 2.5v6.2h-2.1V7h2ZM121.2 18.5c-.9 0-1.6-.3-2.3-.9-.6-.6-.9-1.3-.9-2.4V9h-2V7h2V3.6h2.1V7h2.8v2h-2.8v5.5c0 .8.2 1.3.5 1.6.3.2.6.4 1 .4h.5l.4-.2.7 1.9c-.6.2-1.2.3-2 .3ZM133.8 15.1a3 3 0 0 1-1.3 2.5c-.9.7-2 1-3.3 1-1 0-2-.3-3-.9a4.9 4.9 0 0 1-1.8-2.3l2-.8a3 3 0 0 0 3 2.1 3 3 0 0 0 1.5-.4c.5-.3.7-.6.7-1 0-.8-.5-1.3-1.6-1.6l-2-.5c-2.2-.6-3.3-1.6-3.3-3.2a3 3 0 0 1 1.3-2.4c.8-.7 1.9-1 3.2-1 1 0 2 .3 2.7.7.8.5 1.4 1.1 1.7 2l-1.9.7c-.2-.4-.5-.8-1-1-.5-.4-1-.5-1.7-.5-.5 0-1 .1-1.4.4-.5.3-.7.6-.7 1 0 .7.6 1.1 1.8 1.4l1.7.4c2.3.6 3.4 1.7 3.4 3.4ZM9.4 18.6A9.4 9.4 0 0 1 0 9.3C0 4.2 4.3 0 9.4 0c2.9 0 5 1.1 6.4 2.6L14 4.4c-1-1-2.5-1.9-4.6-1.9-3.7 0-6.6 3-6.6 6.8s2.9 6.8 6.6 6.8c2.5 0 3.9-1 4.8-1.9.7-.7 1.2-1.7 1.4-3.2H9.4V8.5H18l.2 1.6c0 1.9-.6 4.2-2.2 6a8.5 8.5 0 0 1-6.6 2.5ZM31.4 12.6c0 3.5-2.7 6-5.9 6-3.3 0-6-2.5-6-6 0-3.4 2.7-6 6-6 3.2 0 6 2.6 6 6Zm-2.6 0c0-2.1-1.5-3.6-3.3-3.6-1.8 0-3.3 1.5-3.3 3.6 0 2.2 1.5 3.7 3.3 3.7 1.8 0 3.3-1.5 3.3-3.7ZM44.7 12.6c0 3.5-2.7 6-6 6-3.2 0-5.9-2.5-5.9-6 0-3.4 2.7-6 6-6 3.2 0 5.9 2.6 5.9 6Zm-2.6 0c0-2.1-1.6-3.6-3.4-3.6-1.7 0-3.3 1.5-3.3 3.6 0 2.2 1.6 3.7 3.3 3.7 1.8 0 3.4-1.5 3.4-3.7ZM57.6 7v10.8c0 4.4-2.6 6.2-5.7 6.2-3 0-4.7-2-5.3-3.5l2.3-1c.4 1 1.4 2.2 3 2.2 2 0 3.2-1.3 3.2-3.6v-.8H55a4 4 0 0 1-3.2 1.3 6 6 0 0 1-5.7-6 6 6 0 0 1 5.7-6c1.5 0 2.6.7 3.2 1.4V7h2.6Zm-2.3 5.7c0-2.1-1.4-3.7-3.2-3.7-1.8 0-3.4 1.6-3.4 3.7 0 2 1.6 3.6 3.4 3.6 1.8 0 3.2-1.5 3.2-3.6ZM62.2.6v17.7h-2.6V.6h2.6ZM72.6 14.6l2 1.4a6 6 0 0 1-5 2.6 5.8 5.8 0 0 1-5.8-6c0-3.5 2.4-6 5.5-6s4.7 2.5 5.2 3.8l.2.7-8 3.3a3 3 0 0 0 3 1.9c1.3 0 2.2-.7 2.9-1.7Zm-6.3-2.1 5.3-2.3c-.3-.7-1.1-1.2-2.2-1.2a3.3 3.3 0 0 0-3.1 3.5Z"/></svg>