<svg _ngcontent-ng-c3107572908="" xmlns="http://www.w3.org/2000/svg" viewBox="0 0 40 40" fill="none"><circle _ngcontent-ng-c3107572908="" cx="20" cy="20" r="20" fill="#FEF7E0"/><path _ngcontent-ng-c3107572908="" d="M11.875 29.75C11.4417 29.75 11.0625 29.5875 10.7375 29.2625C10.4125 28.9375 10.25 28.5583 10.25 28.125V11.875C10.25 11.4417 10.4125 11.0625 10.7375 10.7375C11.0625 10.4125 11.4417 10.25 11.875 10.25H24.3875L29.75 15.6125V28.125C29.75 28.5583 29.5875 28.9375 29.2625 29.2625C28.9375 29.5875 28.5583 29.75 28.125 29.75H11.875ZM11.875 28.125H28.125V16.5179H23.4938V11.875H11.875V28.125ZM14.5563 25.1188H25.4438V23.4938H14.5563V25.1188ZM14.5563 16.5062H20V14.8812H14.5563V16.5062ZM14.5563 20.8125H25.4438V19.1875H14.5563V20.8125Z" fill="#F29900"/></svg>