<svg _ngcontent-ng-c3107572908="" width="40" height="40" viewBox="0 0 56 56" fill="none" xmlns="http://www.w3.org/2000/svg"><path _ngcontent-ng-c3107572908="" d="M28 56C43.464 56 56 43.464 56 28C56 12.536 43.464 0 28 0C12.536 0 0 12.536 0 28C0 43.464 12.536 56 28 56Z" fill="#F8F9FA"/><path _ngcontent-ng-c3107572908="" d="M44 28C44 36.8366 36.8366 44 28 44C19.1634 44 12 36.8366 12 28C12 19.1634 19.1634 12 28 12C36.8366 12 44 19.1634 44 28Z" fill="#F8F9FA" stroke="#0B57D0" stroke-width="2"/><path _ngcontent-ng-c3107572908="" d="M17.0996 17.0996H38.8996V38.8996H17.0996V17.0996Z" fill="#F8F9FA" stroke="#0B57D0" stroke-width="2"/><mask _ngcontent-ng-c3107572908="" id="path-4-inside-1_1512_67614" fill="white"><path _ngcontent-ng-c3107572908="" fill-rule="evenodd" clip-rule="evenodd" d="M39.8387 16.1611L27.9994 39.8397L16.1602 16.1611"/></mask><path _ngcontent-ng-c3107572908="" d="M27.9994 39.8397L26.2106 40.7341L27.9994 44.3118L29.7883 40.7341L27.9994 39.8397ZM38.0499 15.2667L26.2106 38.9453L29.7883 40.7341L41.6276 17.0556L38.0499 15.2667ZM29.7883 38.9453L17.949 15.2667L14.3713 17.0556L26.2106 40.7341L29.7883 38.9453Z" fill="#0B57D0" mask="url(#path-4-inside-1_1512_67614)"/></svg>