<svg _ngcontent-ng-c3107572908="" xmlns="http://www.w3.org/2000/svg" viewBox="0 0 500 500"><circle _ngcontent-ng-c3107572908="" cx="250" cy="250" r="250" fill="#1967D2"/><path _ngcontent-ng-c3107572908="" fill-rule="evenodd" clip-rule="evenodd" d="M163.971 240.078h87.695c.498 1.985.951 4.551 1.367 7.69.412 3.144.621 6.12.621 8.93 0 12.569-1.824 23.732-5.465 33.487-3.646 9.76-8.944 18.357-15.9 25.798-7.95 8.435-17.557 15.008-28.817 19.72-11.265 4.714-24.099 7.07-38.508 7.07-12.918 0-25.134-2.318-36.643-6.945-11.513-4.628-21.575-11.038-30.185-19.224-8.613-8.187-15.403-17.942-20.37-29.271-4.97-11.325-7.454-23.771-7.454-37.333 0-13.558 2.485-26.002 7.453-37.333 4.968-11.324 11.758-21.084 20.371-29.269 8.61-8.186 18.672-14.593 30.185-19.225 11.509-4.628 23.725-6.946 36.643-6.946 15.069 0 28.197 2.566 39.376 7.69 11.18 5.128 20.993 12.155 29.439 21.085L207.446 211.8c-5.799-5.788-11.968-10.21-18.509-13.272-6.543-3.057-14.699-4.588-24.47-4.588-7.619 0-14.781 1.363-21.489 4.093-6.708 2.728-12.589 6.535-17.638 11.41-5.055 4.88-9.03 10.752-11.925 17.612-2.9 6.865-4.348 14.511-4.348 22.945 0 8.435 1.448 16.086 4.348 22.946 2.895 6.865 6.914 12.736 12.049 17.612 5.132 4.88 11.094 8.682 17.887 11.41 6.789 2.729 14.075 4.094 21.862 4.094 15.235 0 27.408-4.051 36.519-12.155 2.815-2.481 5.423-5.582 7.825-9.303 2.399-3.721 4.348-7.814 5.839-12.279h-51.425v-32.247zm166.883 61.869c9.551 0 17.789-1.276 24.707-3.834 6.917-2.555 12.639-6.142 17.171-10.761 4.529-4.615 7.864-10.099 10.007-16.45 2.138-6.346 3.212-13.316 3.212-20.902 0-7.584-1.074-14.552-3.212-20.902-2.143-6.346-5.478-11.831-10.007-16.449-4.532-4.616-10.254-8.203-17.171-10.761-6.918-2.555-15.156-3.834-24.707-3.834h-21.989v103.893h21.989zm-60.533-140.503h62.509c14.164 0 26.931 2.145 38.296 6.431 11.366 4.291 21.001 10.308 28.908 18.058 7.906 7.753 13.959 17.068 18.16 27.952 4.2 10.884 6.3 22.924 6.3 36.115 0 13.196-2.1 25.231-6.3 36.115-4.201 10.885-10.254 20.203-18.16 27.953-7.907 7.752-17.542 13.771-28.908 18.058-11.365 4.29-24.132 6.43-38.296 6.43h-62.509V161.444z" fill="#fff"/></svg>